<?xml version="1.0" encoding="utf-8"?>
<!-- Generator: Adobe Illustrator 25.0.1, SVG Export Plug-In . SVG Version: 6.00 Build 0)  -->
<svg version="1.1" id="Camada_1" xmlns="http://www.w3.org/2000/svg" xmlns:xlink="http://www.w3.org/1999/xlink" x="0px" y="0px"
	 viewBox="0 0 567 145" style="enable-background:new 0 0 567 145;" xml:space="preserve">
<style type="text/css">
	.st0{fill:url(#SVGID_1_);stroke:#575756;stroke-miterlimit:10;}
	.st1{fill:#101914;}
	.st2{fill:#E7AA02;}
	.st3{fill:#E7AA09;}
</style>
<g>
	<g>
		<linearGradient id="SVGID_1_" gradientUnits="userSpaceOnUse" x1="132.0185" y1="14.2155" x2="132.0185" y2="154.0476">
			<stop  offset="0.3156" style="stop-color:#E7AA02"/>
			<stop  offset="1" style="stop-color:#F59B2F"/>
		</linearGradient>
		<circle class="st0" cx="132.02" cy="72.21" r="69.92"/>
		<circle class="st1" cx="132.02" cy="72.21" r="62.98"/>
		<g>
			<g>
				<path class="st2" d="M75.58,88.1V69.49h5.08v14.46h16.94v4.14H75.58z"/>
				<path class="st2" d="M105.12,69.49V88.1h-5.08V69.49H105.12z"/>
				<path class="st2" d="M133.41,69.49v4.14h-18.37c-0.67-0.01-1.24,0.2-1.7,0.64c-0.46,0.4-0.69,0.91-0.69,1.53v5.98
					c0,0.6,0.23,1.11,0.69,1.55c0.46,0.41,1.03,0.62,1.7,0.62h13.95v-2.89h-6.34v-3.92h11.42V88.1h-20.52
					c-1.66,0-3.07-0.53-4.24-1.59c-1.16-1.06-1.74-2.34-1.74-3.84v-7.74c0-1.5,0.58-2.78,1.74-3.84c1.17-1.06,2.58-1.59,4.24-1.59
					H133.41z"/>
				<path class="st2" d="M141.58,69.49v6.97h15.03v-6.97h5.08V88.1h-5.08v-7.5h-15.03v7.5h-5.08V69.49H141.58z"/>
				<path class="st2" d="M188.49,69.49v4.14h-9.64V88.1h-5.08V73.64h-9.63v-4.14H188.49z"/>
			</g>
			<g>
				<path class="st2" d="M118.21,94.95c0.74,0,1.44,0.16,2.09,0.48c0.68,0.32,1.21,0.76,1.59,1.33c0.42,0.56,0.62,1.17,0.6,1.83
					v5.19c0.02,0.66-0.19,1.27-0.61,1.83c-0.4,0.56-0.93,1.01-1.59,1.33c-0.64,0.32-1.33,0.48-2.08,0.48h-13.24V94.95H118.21z
					 M108.38,104.65h9.11c0.46-0.02,0.83-0.16,1.14-0.43c0.31-0.29,0.46-0.63,0.46-1.03v-4.01c0-0.42-0.15-0.76-0.46-1.04
					c-0.3-0.3-0.68-0.44-1.14-0.42h-9.11V104.65z"/>
				<path class="st2" d="M137.58,96.54v2.65h-10.2v1.45h8.84v2.6h-8.84v1.54h10.2v2.65h-13.42V96.54H137.58z"/>
				<path class="st2" d="M154.25,94.95v2.78h-11.63v2.43h10.03v2.72h-10.03v4.54h-3.4V94.95H154.25z"/>
				<path class="st2" d="M159.1,96.54v10.89h-3.2V96.54H159.1z"/>
			</g>
			<g>
				<polygon class="st2" points="128.34,35.81 124.79,41.17 128.34,46.54 131.89,41.17 				"/>
				<polygon class="st2" points="117.7,50 117.7,25.16 110.6,25.16 110.6,50 110.6,57.1 117.7,57.1 131.89,57.1 131.89,50 				"/>
				<polygon class="st2" points="139.03,25.16 124.83,25.16 124.83,32.26 139.03,32.26 139.03,57.1 146.13,57.1 146.13,32.26 
					146.13,25.16 				"/>
			</g>
		</g>
	</g>
	<g>
		<g>
			<path class="st3" d="M236.44,80.84V36.66h12.06v34.35h40.22v9.84H236.44z"/>
			<path class="st3" d="M306.6,36.66v44.19h-12.06V36.66H306.6z"/>
			<path class="st3" d="M373.78,36.66v9.84h-43.64c-1.59-0.02-2.94,0.48-4.03,1.52c-1.1,0.95-1.64,2.16-1.64,3.64v14.19
				c0,1.42,0.55,2.64,1.64,3.68c1.1,0.97,2.44,1.46,4.03,1.48h33.12v-6.87H348.2v-9.32h27.13v26.03h-48.74
				c-3.93,0-7.29-1.26-10.06-3.77c-2.75-2.52-4.13-5.56-4.13-9.13V49.56c0-3.57,1.38-6.61,4.13-9.13c2.77-2.52,6.13-3.77,10.06-3.77
				H373.78z"/>
			<path class="st3" d="M393.2,36.66V53.2h35.71V36.66h12.06v44.19H428.9v-17.8H393.2v17.8h-12.06V36.66H393.2z"/>
			<path class="st3" d="M504.6,36.66v9.84h-22.9v34.35h-12.06V46.49h-22.87v-9.84H504.6z"/>
		</g>
		<g>
			<path class="st3" d="M337.68,97.12c1.76,0,3.42,0.38,4.97,1.15c1.61,0.76,2.88,1.81,3.78,3.16c0.99,1.34,1.47,2.79,1.43,4.35
				v12.32c0.04,1.56-0.44,3.01-1.45,4.35c-0.95,1.34-2.21,2.39-3.78,3.16c-1.51,0.76-3.16,1.14-4.95,1.14h-31.43V97.12H337.68z
				 M314.34,120.14h21.64c1.08-0.04,1.98-0.38,2.7-1.02c0.74-0.69,1.1-1.51,1.1-2.44v-9.51c0-0.99-0.37-1.82-1.1-2.46
				c-0.72-0.71-1.62-1.04-2.7-0.99h-21.64V120.14z"/>
			<path class="st3" d="M383.69,100.88v6.29h-24.21v3.44h20.99v6.18h-20.99v3.65h24.21v6.29h-31.87v-25.86H383.69z"/>
			<path class="st3" d="M423.3,97.12v6.59h-27.63v5.77h23.82v6.46h-23.82v10.79h-8.09V97.12H423.3z"/>
			<path class="st3" d="M434.8,100.88v25.86h-7.61v-25.86H434.8z"/>
		</g>
	</g>
</g>
</svg>
