<svg xmlns="http://www.w3.org/2000/svg" xmlns:xlink="http://www.w3.org/1999/xlink" width="180" height="66" viewBox="0 0 180 66">
  <defs>
    <clipPath id="clip-atar_service_icon">
      <rect width="180" height="66"/>
    </clipPath>
  </defs>
  <g id="atar_service_icon" clip-path="url(#clip-atar_service_icon)">
    <g id="atar_icon" transform="translate(-37 -24.84)">
      <g id="Group_806" data-name="Group 806" transform="translate(77.279 26.84)">
        <path id="Path_1" data-name="Path 1" d="M201.826-51.832l3.349.005a5.483,5.483,0,0,0,1.392-.181,6.116,6.116,0,0,0,3.565-2.367,7.641,7.641,0,0,0,1.4-4.324,7.388,7.388,0,0,0-.041-.81,6.927,6.927,0,0,0-.326-1.555,6.471,6.471,0,0,0-2.581-3.583,6.115,6.115,0,0,0-3.408-1.073c-2.421-.013-8.394-.009-8.394-.009v23.443h1.129V-64.611h6.05a7.377,7.377,0,0,1,2.869.376,5.07,5.07,0,0,1,2.476,1.866,6.943,6.943,0,0,1,.61,1.158,5.906,5.906,0,0,1,.509,2.186,5.6,5.6,0,0,1-.064,1.139,6.513,6.513,0,0,1-.634,2.012,5.092,5.092,0,0,1-1.965,2.156,5.338,5.338,0,0,1-2.65.81s-4.836-.006-4.961,0v1.048C200.344-51.7,210.3-42.3,210.3-42.3h1.685Z" transform="translate(-111.821 70.83)" fill="#404040" fill-rule="evenodd"/>
        <path id="Path_2" data-name="Path 2" d="M155.556-51.511c.054-.168,4.837-13.088,4.837-13.088l4.858,13.088Zm5.324-14.982h-.966q-4.5,11.883-9,23.772h1.2c.5-1.281,2.459-6.4,2.975-7.654h10.6q1.5,3.826,3,7.656h1.184c-.118-.321-8.717-23.045-8.988-23.773" transform="translate(-85.756 71.264)" fill="#404040" fill-rule="evenodd"/>
        <path id="Path_3" data-name="Path 3" d="M136.843-64.8v-1.1h-16.35s0,1.111,0,1.115h7.678c0,3.684-.01,18.668,0,22.405h1.119V-64.8Z" transform="translate(-68.467 70.931)" fill="#404040" fill-rule="evenodd"/>
        <path id="Path_4" data-name="Path 4" d="M89.769-51.511c.054-.168,4.837-13.088,4.837-13.088l4.858,13.088Zm5.324-14.982h-.966l-9,23.772h1.2c.5-1.281,2.459-6.4,2.975-7.654H99.9q1.5,3.826,3,7.656h1.183c-.118-.321-8.717-23.045-8.988-23.773" transform="translate(-48.374 71.264)" fill="#404040" fill-rule="evenodd"/>
        <path id="Path_5" data-name="Path 5" d="M35.153-65.771a47.516,47.516,0,0,1-3.061,12.382c-2.266,5.384-4.918,8-8.109,8a9.447,9.447,0,0,1-4.428-1.359,34.127,34.127,0,0,0,8.381-8.27c1.712-2.515,2.3-4.763,1.747-6.68a5.708,5.708,0,0,0-3.37-3.565A20.208,20.208,0,0,0,18.28-66.67a20.208,20.208,0,0,0-8.034,1.408A5.707,5.707,0,0,0,6.876-61.7c-.553,1.917.035,4.165,1.747,6.68A34.125,34.125,0,0,0,17-46.746a9.447,9.447,0,0,1-4.427,1.358c-3.191,0-5.843-2.617-8.108-8A47.5,47.5,0,0,1,1.407-65.771a8.714,8.714,0,0,1,.846-5.243c2.589-4.824,12.9-5.2,16.018-5.2h.023c3.114,0,13.424.38,16.014,5.2a8.714,8.714,0,0,1,.845,5.243M9.719-55.762C8.239-57.936,7.712-59.81,8.15-61.33a4.513,4.513,0,0,1,2.626-2.718,18.89,18.89,0,0,1,7.5-1.3,18.888,18.888,0,0,1,7.5,1.3A4.512,4.512,0,0,1,28.41-61.33c.438,1.52-.089,3.394-1.569,5.568A32.89,32.89,0,0,1,18.28-47.5a32.87,32.87,0,0,1-8.561-8.266M35.476-71.64c-2.847-5.3-12.879-5.9-17.139-5.9H18.2c-4.256.006-14.27.6-17.114,5.9a10,10,0,0,0-.994,6.026A48.843,48.843,0,0,0,3.246-52.874c2.495,5.93,5.547,8.812,9.33,8.813a11.5,11.5,0,0,0,5.7-1.884,11.5,11.5,0,0,0,5.7,1.884c3.783,0,6.835-2.883,9.33-8.813A48.86,48.86,0,0,0,36.47-65.614a10.011,10.011,0,0,0-.994-6.026" transform="translate(0 77.542)" fill="#404040"/>
      </g>
      <path id="Path_4868" data-name="Path 4868" d="M5.04-9.268H1.134V0H5.04A4.335,4.335,0,0,0,9.3-4.634,4.335,4.335,0,0,0,5.04-9.268ZM5-.994H2.184v-7.28H5a3.36,3.36,0,0,1,3.248,3.64A3.36,3.36,0,0,1,5-.994ZM10.766,0h1.05V-7h-1.05Zm-.042-9.548v1.372h1.134V-9.548Zm5.348,2.436c-1.806,0-2.744.742-2.744,2,0,2.562,4.662,1.47,4.662,3.22,0,.952-1.218,1.106-1.792,1.106-1.358,0-1.89-.7-1.96-1.414H13.146c.07,1.232,1.092,2.31,3.038,2.31,1.736,0,2.856-.742,2.856-2.1,0-2.632-4.662-1.54-4.662-3.22,0-.686.574-1.008,1.666-1.008,1.176,0,1.624.49,1.708,1.092h1.064C18.69-6.146,17.92-7.112,16.072-7.112ZM23.94.112A3.394,3.394,0,0,0,27.328-3.5,3.394,3.394,0,0,0,23.94-7.112,2.871,2.871,0,0,0,21.434-5.88V-7h-1.05V2.772h1.05V-1.134A2.88,2.88,0,0,0,23.94.112ZM23.8-6.16A2.476,2.476,0,0,1,26.278-3.5,2.476,2.476,0,0,1,23.8-.84,2.432,2.432,0,0,1,21.378-3.5,2.432,2.432,0,0,1,23.8-6.16Zm7.938-.952A3.4,3.4,0,0,0,28.266-3.5,3.4,3.4,0,0,0,31.738.112,3.4,3.4,0,0,0,35.21-3.5,3.4,3.4,0,0,0,31.738-7.112Zm0,6.272A2.432,2.432,0,0,1,29.316-3.5a2.432,2.432,0,0,1,2.422-2.66A2.432,2.432,0,0,1,34.16-3.5,2.432,2.432,0,0,1,31.738-.84ZM36.6-7V0h1.05V-4.032A2.072,2.072,0,0,1,39.76-6.16a1.94,1.94,0,0,1,1.96,2.114V0h1.05V-4.074a2.8,2.8,0,0,0-2.8-3.038,2.731,2.731,0,0,0-2.324,1.2V-7ZM44.52,0h1.05V-7H44.52Zm-.434-7.98h.854l1.5-1.47h-1.5ZM52.108-7l-2.2,5.88L47.7-7H46.55l2.744,7h1.232l2.73-7ZM57.274-.84A2.433,2.433,0,0,1,54.8-3.08h5.866V-3.5A3.4,3.4,0,0,0,57.19-7.112,3.4,3.4,0,0,0,53.718-3.5,3.46,3.46,0,0,0,57.26.112a3.2,3.2,0,0,0,3.192-2.128H59.3A2.187,2.187,0,0,1,57.274-.84ZM57.19-6.16a2.342,2.342,0,0,1,2.38,2.1H54.81A2.342,2.342,0,0,1,57.19-6.16ZM63-9.8H61.95V0H63ZM73.878-6.65c0-1.54-1.162-2.73-3.164-2.73a3.012,3.012,0,0,0-3.22,2.632h1.05c.14-1.036.966-1.61,2.2-1.61,1.344,0,2.086.658,2.086,1.736,0,2.128-5.208,3.3-5.208,6.048V0h6.23V-1.008H68.866C69.034-2.646,73.878-4.06,73.878-6.65ZM80.5-3.3V-9.268H78.918l-3.892,5.88v1.022H79.45V0H80.5V-2.366h1.246V-3.3Zm-4.494,0L79.45-8.372V-3.3Zm7.2-6.5V0h1.05V-4.032A2.072,2.072,0,0,1,86.366-6.16a1.94,1.94,0,0,1,1.96,2.114V0h1.05V-4.074a2.8,2.8,0,0,0-2.8-3.038,2.731,2.731,0,0,0-2.324,1.2V-9.8ZM97.664.112A3.394,3.394,0,0,0,101.052-3.5a3.394,3.394,0,0,0-3.388-3.612A2.871,2.871,0,0,0,95.158-5.88V-7h-1.05V2.772h1.05V-1.134A2.88,2.88,0,0,0,97.664.112Zm-.14-6.272A2.476,2.476,0,0,1,100-3.5,2.476,2.476,0,0,1,97.524-.84,2.432,2.432,0,0,1,95.1-3.5,2.432,2.432,0,0,1,97.524-6.16Zm7.938-.952A3.4,3.4,0,0,0,101.99-3.5,3.4,3.4,0,0,0,105.462.112,3.4,3.4,0,0,0,108.934-3.5,3.4,3.4,0,0,0,105.462-7.112Zm0,6.272A2.432,2.432,0,0,1,103.04-3.5a2.432,2.432,0,0,1,2.422-2.66,2.432,2.432,0,0,1,2.422,2.66A2.432,2.432,0,0,1,105.462-.84Zm8.484-6.272a2.662,2.662,0,0,0-2.576,1.834V-7h-1.05V0h1.05V-3.08a2.728,2.728,0,0,1,2.52-2.982h.126v-1.05Zm7.14,0A3.394,3.394,0,0,0,117.7-3.5,3.394,3.394,0,0,0,121.086.112a2.871,2.871,0,0,0,2.506-1.232V0h1.05V-9.8h-1.05v3.934A2.88,2.88,0,0,0,121.086-7.112Zm.14,6.272a2.476,2.476,0,0,1-2.478-2.66,2.476,2.476,0,0,1,2.478-2.66,2.432,2.432,0,0,1,2.422,2.66A2.432,2.432,0,0,1,121.226-.84Zm5.236.84h1.05V-7h-1.05Zm-.042-9.548v1.372h1.134V-9.548Zm5.866,2.436A3.394,3.394,0,0,0,128.9-3.5,3.394,3.394,0,0,0,132.286.112a2.871,2.871,0,0,0,2.506-1.232V0h1.05V-7h-1.05v1.134A2.88,2.88,0,0,0,132.286-7.112Zm.14,6.272a2.476,2.476,0,0,1-2.478-2.66,2.476,2.476,0,0,1,2.478-2.66,2.432,2.432,0,0,1,2.422,2.66A2.432,2.432,0,0,1,132.426-.84Z" transform="translate(59 72.098)" fill="#077fbf"/>
    </g>
    <path id="Path_4869" data-name="Path 4869" d="M1.134-9.268V0h6.1V-1.008H2.184v-8.26ZM8.372,0h1.05V-7H8.372ZM8.33-9.548v1.372H9.464V-9.548Zm8.638,5.362a1.846,1.846,0,0,1,1.89-1.974A1.789,1.789,0,0,1,20.594-4.2V0h1.05V-4.228a2.7,2.7,0,0,0-2.59-2.884A2.775,2.775,0,0,0,16.646-5.7,2.48,2.48,0,0,0,14.42-7.112a2.362,2.362,0,0,0-2.128,1.176V-7h-1.05V0h1.05V-4.186a1.846,1.846,0,0,1,1.89-1.974A1.789,1.789,0,0,1,15.918-4.2V0h1.05ZM23.394,0h1.05V-7h-1.05Zm-.042-9.548v1.372h1.134V-9.548ZM28.07,0V-6.076h1.61V-7H28.07V-9.506H27.02V-7H25.592v.924H27.02V0Zm5.74-.84a2.433,2.433,0,0,1-2.478-2.24H37.2V-3.5a3.4,3.4,0,0,0-3.472-3.612A3.4,3.4,0,0,0,30.254-3.5,3.46,3.46,0,0,0,33.8.112a3.2,3.2,0,0,0,3.192-2.128H35.84A2.187,2.187,0,0,1,33.81-.84Zm-.084-5.32a2.342,2.342,0,0,1,2.38,2.1h-4.76A2.342,2.342,0,0,1,33.726-6.16ZM47.194-4.186a1.846,1.846,0,0,1,1.89-1.974A1.789,1.789,0,0,1,50.82-4.2V0h1.05V-4.228a2.7,2.7,0,0,0-2.59-2.884A2.775,2.775,0,0,0,46.872-5.7a2.48,2.48,0,0,0-2.226-1.414,2.362,2.362,0,0,0-2.128,1.176V-7h-1.05V0h1.05V-4.186a1.846,1.846,0,0,1,1.89-1.974A1.789,1.789,0,0,1,46.144-4.2V0h1.05Zm9.38-2.926A3.394,3.394,0,0,0,53.186-3.5,3.394,3.394,0,0,0,56.574.112,2.871,2.871,0,0,0,59.08-1.12V0h1.05V-7H59.08v1.134A2.88,2.88,0,0,0,56.574-7.112Zm.14,6.272A2.476,2.476,0,0,1,54.236-3.5a2.476,2.476,0,0,1,2.478-2.66A2.432,2.432,0,0,1,59.136-3.5,2.432,2.432,0,0,1,56.714-.84ZM67.55-7H66.206L64.414-4.354,62.608-7H61.264L63.8-3.612,61.1,0h1.33l1.988-2.856L66.388,0h1.344L65.016-3.612Zm5.4,3.444h3.22L78.414,0H79.66L77.224-3.738a2.534,2.534,0,0,0,2.24-2.632,2.82,2.82,0,0,0-3.122-2.9H71.9V0h1.05Zm0-4.718h3.262a1.935,1.935,0,0,1,2.2,1.9c0,1.442-1.26,1.82-2.254,1.82H72.954ZM88.41-2.562c0-1.75-1.876-2.226-3.584-2.632V-8.386c1.47.084,2.156.784,2.268,1.652h1.078c-.084-1.33-1.106-2.534-3.346-2.632v-1.078h-.518V-9.38c-2.2.056-3.29,1.092-3.29,2.562,0,1.638,1.666,2.128,3.29,2.52V-.9c-1.372-.112-2.422-.672-2.478-1.876H80.738C80.864-1.19,81.872-.014,84.308.1V1.5h.518V.112C87.052.084,88.41-.854,88.41-2.562Zm-6.37-4.27c0-.6.336-1.512,2.268-1.568v3.08C83.076-5.628,82.04-5.964,82.04-6.832Zm2.786,5.95v-3.29c1.344.336,2.534.672,2.534,1.652C87.36-1.428,86.38-.882,84.826-.882Zm11.1-5.124a3.319,3.319,0,0,0-1.638.434l.42-2.688h3.878V-9.268h-4.83l-.63,4.4.966.588a2.541,2.541,0,0,1,1.834-.742A1.966,1.966,0,0,1,98-2.968,2.012,2.012,0,0,1,95.9-.91a2.089,2.089,0,0,1-2.212-1.414H92.61A3.048,3.048,0,0,0,95.942.112a3.069,3.069,0,0,0,3.108-3.08A2.933,2.933,0,0,0,95.928-6.006Zm4.536,4.578V0h1.358V-1.428Zm5.95-7.952c-2.184,0-3.248,1.652-3.248,4.746S104.23.112,106.414.112s3.248-1.652,3.248-4.746C109.662-7.056,108.962-9.338,106.414-9.38Zm0,8.47c-1.54,0-2.2-1.246-2.2-3.724s.658-3.724,2.2-3.724,2.2,1.246,2.2,3.724C108.612-2.912,108.318-.952,106.414-.91Zm7.7-8.47c-2.184,0-3.248,1.652-3.248,4.746S111.93.112,114.114.112s3.248-1.652,3.248-4.746C117.362-7.056,116.662-9.338,114.114-9.38Zm0,8.47c-1.54,0-2.2-1.246-2.2-3.724s.658-3.724,2.2-3.724,2.2,1.246,2.2,3.724C116.312-2.912,116.018-.952,114.114-.91Zm7.7-8.47c-2.184,0-3.248,1.652-3.248,4.746S119.63.112,121.814.112s3.248-1.652,3.248-4.746C125.062-7.056,124.362-9.338,121.814-9.38Zm0,8.47c-1.54,0-2.2-1.246-2.2-3.724s.658-3.724,2.2-3.724,2.2,1.246,2.2,3.724C124.012-2.912,123.718-.952,121.814-.91Zm11.3,1.022A3.394,3.394,0,0,0,136.5-3.5a3.394,3.394,0,0,0-3.388-3.612,2.871,2.871,0,0,0-2.506,1.232V-7h-1.05V2.772h1.05V-1.134A2.88,2.88,0,0,0,133.112.112Zm-.14-6.272A2.476,2.476,0,0,1,135.45-3.5a2.476,2.476,0,0,1-2.478,2.66A2.432,2.432,0,0,1,130.55-3.5,2.432,2.432,0,0,1,132.972-6.16Zm7.938-.952A3.4,3.4,0,0,0,137.438-3.5,3.4,3.4,0,0,0,140.91.112,3.4,3.4,0,0,0,144.382-3.5,3.4,3.4,0,0,0,140.91-7.112Zm0,6.272a2.432,2.432,0,0,1-2.422-2.66,2.432,2.432,0,0,1,2.422-2.66,2.432,2.432,0,0,1,2.422,2.66A2.432,2.432,0,0,1,140.91-.84Zm8.484-6.272a2.662,2.662,0,0,0-2.576,1.834V-7h-1.05V0h1.05V-3.08a2.728,2.728,0,0,1,2.52-2.982h.126v-1.05Zm7.14,0A3.394,3.394,0,0,0,153.146-3.5,3.394,3.394,0,0,0,156.534.112,2.871,2.871,0,0,0,159.04-1.12V0h1.05V-9.8h-1.05v3.934A2.88,2.88,0,0,0,156.534-7.112Zm.14,6.272A2.476,2.476,0,0,1,154.2-3.5a2.476,2.476,0,0,1,2.478-2.66A2.432,2.432,0,0,1,159.1-3.5,2.432,2.432,0,0,1,156.674-.84ZM161.91,0h1.05V-7h-1.05Zm-.042-9.548v1.372H163V-9.548Zm5.866,2.436A3.394,3.394,0,0,0,164.346-3.5,3.394,3.394,0,0,0,167.734.112,2.871,2.871,0,0,0,170.24-1.12V0h1.05V-7h-1.05v1.134A2.88,2.88,0,0,0,167.734-7.112Zm.14,6.272A2.476,2.476,0,0,1,165.4-3.5a2.476,2.476,0,0,1,2.478-2.66A2.432,2.432,0,0,1,170.3-3.5,2.432,2.432,0,0,1,167.874-.84Z" transform="translate(4 62.098)" fill="#f69a1c"/>
  </g>
</svg>
