<svg width="180" height="66" viewBox="0 0 180 66" fill="none" xmlns="http://www.w3.org/2000/svg">
<path d="M180 0H0V66H180V0Z" fill="white"/>
<path d="M129.957 56.9106V60H128.916V52.1086H131.826C132.69 52.1086 133.366 52.329 133.854 52.7698C134.345 53.2106 134.591 53.7942 134.591 54.5205C134.591 55.2865 134.35 55.8772 133.87 56.2928C133.393 56.7047 132.708 56.9106 131.816 56.9106H129.957ZM129.957 56.0597H131.826C132.383 56.0597 132.809 55.9296 133.106 55.6695C133.402 55.4057 133.55 55.0263 133.55 54.5313C133.55 54.0616 133.402 53.6858 133.106 53.404C132.809 53.1221 132.403 52.9758 131.886 52.9649H129.957V56.0597ZM137.035 60H135.994V52.1086H137.035V60ZM141.615 55.1329L143.506 52.1086H144.731L142.238 56.0218L144.791 60H143.555L141.615 56.9215L139.664 60H138.433L140.992 56.0218L138.493 52.1086H139.712L141.615 55.1329Z" fill="#F69A1C"/>
<path d="M58.4124 22.1563C60.1984 21.3563 61.7944 19.7243 61.7944 16.4943C61.7944 13.4543 59.7804 9.8443 53.8524 9.8443H42.5664V35.0003H54.4984C60.2364 35.0003 63.0864 32.1503 63.0864 28.3883C63.1179 26.9761 62.6743 25.5943 61.8268 24.4643C60.9793 23.3343 59.7769 22.5215 58.4124 22.1563ZM45.4124 12.5423H54.1524C57.6104 12.5423 58.9404 14.6323 58.9404 16.7223C58.9404 19.8003 56.4704 21.0923 53.8484 21.0923H45.4164L45.4124 12.5423ZM54.8024 32.3003H45.4164V23.6743H54.4984C58.4884 23.6743 60.2364 25.8023 60.2364 28.1583C60.2364 30.7823 58.2604 32.3003 54.8024 32.3003ZM79.0084 9.8423H75.4364L64.7584 35.0003H67.9124L70.9904 27.7003H83.4544L86.5364 35.0003H89.6904L79.0084 9.8423ZM72.0924 25.0823L77.2224 12.8083L82.3524 25.0823H72.0924ZM111.726 9.8443V31.0103L96.1844 9.8443H92.8784V35.0003H95.7284V13.7583L111.27 35.0003H114.576V9.8443H111.726ZM131.524 32.5303C125.406 32.5303 121.986 28.0843 121.986 22.4223C121.986 16.7603 125.406 12.3143 131.524 12.3143C135.666 12.3143 138.402 14.2903 139.694 17.3683H142.694C141.892 15.0089 140.349 12.972 138.294 11.5613C136.24 10.1506 133.785 9.4417 131.294 9.54031C123.732 9.54031 119.134 15.2783 119.134 22.4223C119.134 29.5663 123.736 35.3003 131.296 35.3003C133.787 35.3989 136.242 34.69 138.296 33.2793C140.351 31.8687 141.894 29.8317 142.696 27.4723H139.696C138.402 30.5543 135.666 32.5303 131.524 32.5303ZM157.936 9.54031C150.298 9.54031 145.168 15.2783 145.168 22.4223C145.168 29.5663 150.296 35.3003 157.936 35.3003C165.576 35.3003 170.702 29.5663 170.702 22.4223C170.702 15.2783 165.572 9.54031 157.936 9.54031ZM157.936 32.5303C151.818 32.5303 148.018 28.0843 148.018 22.4223C148.018 16.7603 151.818 12.3143 157.936 12.3143C164.054 12.3143 167.854 16.7603 167.854 22.4223C167.854 28.0843 164.052 32.5303 157.936 32.5303Z" fill="#072338"/>
<path d="M49.7779 39.056H43.3359V39.92H46.1079V47H47.0079V39.92H49.7799L49.7779 39.056ZM53.0179 40.904C52.5302 40.8956 52.0526 41.0438 51.6553 41.3267C51.2579 41.6096 50.9616 42.0124 50.8099 42.476V41H49.9099V47H50.8099V44.36C50.7795 44.0493 50.8116 43.7356 50.9043 43.4375C50.9971 43.1394 51.1486 42.8629 51.3499 42.6243C51.5512 42.3857 51.7983 42.1899 52.0765 42.0483C52.3548 41.9067 52.6585 41.8223 52.9699 41.8H53.0779V40.9L53.0179 40.904ZM56.4259 40.904C56.0281 40.9044 55.6345 40.9864 55.2696 41.1449C54.9046 41.3034 54.5761 41.5351 54.3043 41.8257C54.0325 42.1163 53.8232 42.4595 53.6893 42.8342C53.5554 43.2088 53.4998 43.607 53.5259 44.004C53.5004 44.4007 53.5564 44.7984 53.6905 45.1726C53.8247 45.5468 54.0341 45.8896 54.3058 46.1797C54.5776 46.4698 54.9059 46.7011 55.2706 46.8594C55.6352 47.0177 56.0284 47.0996 56.4259 47.1C56.8446 47.1209 57.2617 47.0345 57.6376 46.849C58.0135 46.6635 58.3358 46.385 58.5739 46.04V47H59.4739V41H58.5739V41.972C58.3367 41.6253 58.0149 41.3449 57.639 41.1574C57.2631 40.9698 56.8456 40.8812 56.4259 40.9V40.904ZM56.5459 46.28C56.2533 46.2811 55.9636 46.2216 55.695 46.1054C55.4265 45.9891 55.1849 45.8186 54.9854 45.6044C54.7859 45.3903 54.6329 45.1372 54.5359 44.8611C54.439 44.585 54.4001 44.2918 54.4219 44C54.4001 43.7082 54.439 43.415 54.5359 43.1389C54.6329 42.8628 54.7859 42.6097 54.9854 42.3956C55.1849 42.1814 55.4265 42.0109 55.695 41.8946C55.9636 41.7784 56.2533 41.7189 56.5459 41.72C56.8362 41.72 57.1233 41.7806 57.3888 41.8979C57.6543 42.0152 57.8923 42.1866 58.0877 42.4013C58.2832 42.6159 58.4316 42.8689 58.5236 43.1442C58.6156 43.4195 58.6491 43.711 58.6219 44C58.6491 44.289 58.6156 44.5805 58.5236 44.8558C58.4316 45.1311 58.2832 45.3841 58.0877 45.5987C57.8923 45.8134 57.6543 45.9848 57.3888 46.1021C57.1233 46.2194 56.8362 46.28 56.5459 46.28ZM61.0359 41V47H61.9359V43.544C61.9294 43.3039 61.9716 43.0649 62.0601 42.8416C62.1486 42.6183 62.2814 42.4152 62.4506 42.2447C62.6198 42.0742 62.8219 41.9398 63.0445 41.8496C63.2671 41.7594 63.5058 41.7153 63.7459 41.72C63.9789 41.7167 64.2099 41.7623 64.4241 41.854C64.6382 41.9457 64.8308 42.0813 64.9891 42.2522C65.1475 42.423 65.2683 42.6252 65.3435 42.8457C65.4187 43.0662 65.4468 43.3 65.4259 43.532V47H66.3259V43.508C66.3537 43.1764 66.3121 42.8427 66.204 42.528C66.0959 42.2134 65.9235 41.9246 65.6978 41.6801C65.4721 41.4356 65.1981 41.2407 64.893 41.1078C64.588 40.9749 64.2587 40.9068 63.9259 40.908C63.5347 40.8993 63.1476 40.9888 62.7999 41.1684C62.4523 41.348 62.1552 41.6119 61.9359 41.936V41H61.0359ZM69.9159 40.9C68.3679 40.9 67.5639 41.536 67.5639 42.616C67.5639 44.816 71.5639 43.876 71.5639 45.376C71.5639 46.192 70.5199 46.324 70.0279 46.324C68.8639 46.324 68.4079 45.724 68.3479 45.112H67.4119C67.4719 46.168 68.3479 47.092 70.0119 47.092C71.4999 47.092 72.4599 46.456 72.4599 45.292C72.4599 43.036 68.4599 43.972 68.4599 42.532C68.4599 41.944 68.9519 41.668 69.8879 41.668C70.8959 41.668 71.2799 42.088 71.3519 42.604H72.2639C72.1579 41.732 71.4979 40.9 69.9139 40.9H69.9159ZM76.3159 39.352V38.5H76.2359C74.8559 38.5 74.0159 39.16 74.0159 40.468V41H72.9859V41.792H74.0179V47H74.9179V41.792H76.3099V41H74.9179V40.544C74.9179 39.716 75.3499 39.356 76.1899 39.356L76.3159 39.352ZM79.8559 46.276C79.3234 46.289 78.806 46.0978 78.41 45.7415C78.0139 45.3852 77.7692 44.8909 77.7259 44.36H82.7539V44C82.7794 43.5968 82.7208 43.1927 82.5819 42.8134C82.443 42.434 82.2268 42.0876 81.947 41.7962C81.6672 41.5047 81.33 41.2746 80.9566 41.1203C80.5832 40.966 80.1818 40.891 79.7779 40.9C79.374 40.891 78.9727 40.966 78.5993 41.1203C78.2259 41.2746 77.8886 41.5047 77.6089 41.7962C77.3291 42.0876 77.1129 42.434 76.974 42.8134C76.8351 43.1927 76.7765 43.5968 76.8019 44C76.7834 44.4064 76.8488 44.8123 76.9938 45.1924C77.1389 45.5725 77.3606 45.9187 77.6451 46.2094C77.9297 46.5002 78.2711 46.7293 78.6479 46.8825C79.0248 47.0357 79.4292 47.1097 79.8359 47.1C80.4279 47.1329 81.0146 46.9729 81.508 46.644C82.0013 46.3152 82.3746 45.8351 82.5719 45.276H81.5879C81.4233 45.5909 81.1724 45.8525 80.8647 46.0303C80.557 46.2081 80.205 46.2947 79.8499 46.28L79.8559 46.276ZM79.7839 41.716C80.2878 41.7053 80.7773 41.8844 81.1552 42.2179C81.5331 42.5513 81.7718 43.0147 81.8239 43.516H77.7359C77.789 43.0151 78.0284 42.5524 78.4066 42.2197C78.7849 41.887 79.2743 41.7087 79.7779 41.72L79.7839 41.716ZM86.9659 40.9C86.4782 40.8916 86.0006 41.0398 85.6033 41.3227C85.2059 41.6056 84.9096 42.0084 84.7579 42.472V41H83.8579V47H84.7579V44.36C84.7275 44.0493 84.7596 43.7356 84.8523 43.4375C84.9451 43.1394 85.0966 42.8629 85.2979 42.6243C85.4992 42.3857 85.7463 42.1899 86.0245 42.0483C86.3028 41.9067 86.6065 41.8223 86.9179 41.8H87.0259V40.9H86.9659ZM90.5179 46.28C89.9858 46.2914 89.4694 46.0989 89.0745 45.7419C88.6797 45.385 88.4362 44.8906 88.3939 44.36H93.4219V44C93.4474 43.5968 93.3888 43.1927 93.2499 42.8134C93.111 42.434 92.8948 42.0876 92.615 41.7962C92.3352 41.5047 91.998 41.2746 91.6246 41.1203C91.2512 40.966 90.8498 40.891 90.4459 40.9C90.042 40.891 89.6407 40.966 89.2673 41.1203C88.8939 41.2746 88.5566 41.5047 88.2769 41.7962C87.9971 42.0876 87.7809 42.434 87.642 42.8134C87.5031 43.1927 87.4445 43.5968 87.4699 44C87.4514 44.4066 87.5168 44.8126 87.662 45.1929C87.8072 45.5731 88.029 45.9194 88.3138 46.2102C88.5986 46.501 88.9402 46.73 89.3173 46.8831C89.6945 47.0362 90.099 47.11 90.5059 47.1C91.0979 47.1329 91.6846 46.9729 92.178 46.644C92.6713 46.3152 93.0446 45.8351 93.2419 45.276H92.2579C92.0931 45.5912 91.842 45.8531 91.5338 46.0308C91.2257 46.2086 90.8734 46.2951 90.5179 46.28ZM90.4459 41.72C90.9498 41.7093 91.4393 41.8884 91.8172 42.2219C92.1951 42.5553 92.4338 43.0187 92.4859 43.52H88.4059C88.458 43.0187 88.6967 42.5553 89.0746 42.2219C89.4526 41.8884 89.9421 41.7093 90.4459 41.72ZM92.1359 40.16L90.9739 38.9H89.9299L88.7539 40.16H89.7379L90.4459 39.512L91.1539 40.16H92.1359ZM94.5259 41V47H95.4259V43.544C95.4194 43.3039 95.4616 43.0649 95.5501 42.8416C95.6386 42.6183 95.7714 42.4152 95.9406 42.2447C96.1098 42.0742 96.3119 41.9398 96.5345 41.8496C96.7571 41.7594 96.9958 41.7153 97.2359 41.72C97.4689 41.7167 97.6999 41.7623 97.9141 41.854C98.1282 41.9457 98.3208 42.0813 98.4791 42.2522C98.6375 42.423 98.7583 42.6252 98.8335 42.8457C98.9087 43.0662 98.9368 43.3 98.9159 43.532V47H99.8159V43.508C99.8437 43.1764 99.8021 42.8427 99.694 42.528C99.5859 42.2134 99.4135 41.9246 99.1878 41.6801C98.9621 41.4356 98.6881 41.2407 98.383 41.1078C98.078 40.9749 97.7487 40.9068 97.4159 40.908C97.0247 40.8993 96.6376 40.9888 96.2899 41.1684C95.9423 41.348 95.6452 41.6119 95.4259 41.936V41H94.5259ZM104.018 46.28C103.723 46.2821 103.431 46.2237 103.159 46.1085C102.887 45.9932 102.642 45.8236 102.439 45.6099C102.235 45.3963 102.078 45.1432 101.976 44.8663C101.874 44.5894 101.83 44.2946 101.846 44C101.83 43.7054 101.874 43.4106 101.976 43.1337C102.078 42.8568 102.235 42.6037 102.439 42.3901C102.642 42.1764 102.887 42.0068 103.159 41.8915C103.431 41.7763 103.723 41.7179 104.018 41.72C104.393 41.7097 104.762 41.8162 105.073 42.0247C105.385 42.2333 105.624 42.5335 105.758 42.884H106.73C106.543 42.2869 106.164 41.7683 105.652 41.4094C105.14 41.0505 104.523 40.8713 103.898 40.9C103.496 40.8947 103.098 40.9724 102.727 41.1282C102.357 41.2841 102.023 41.5148 101.745 41.8058C101.468 42.0968 101.254 42.4419 101.117 42.8195C100.979 43.197 100.921 43.5989 100.946 44C100.921 44.4011 100.979 44.803 101.117 45.1805C101.254 45.5581 101.468 45.9032 101.745 46.1942C102.023 46.4852 102.357 46.7159 102.727 46.8718C103.098 47.0276 103.496 47.1053 103.898 47.1C104.523 47.1287 105.14 46.9495 105.652 46.5906C106.164 46.2317 106.543 45.7131 106.73 45.116H105.758C105.624 45.4665 105.385 45.7667 105.073 45.9753C104.762 46.1838 104.393 46.2903 104.018 46.28ZM107.846 47H108.746V41H107.846V47ZM107.81 38.816V39.992H108.782V38.816H107.81ZM112.836 40.9C112.438 40.9004 112.044 40.9824 111.68 41.1409C111.315 41.2994 110.986 41.5311 110.714 41.8217C110.442 42.1123 110.233 42.4555 110.099 42.8302C109.965 43.2048 109.91 43.603 109.936 44C109.91 44.397 109.965 44.7952 110.099 45.1698C110.233 45.5445 110.442 45.8877 110.714 46.1783C110.986 46.4689 111.315 46.7006 111.68 46.8591C112.044 47.0176 112.438 47.0996 112.836 47.1C113.255 47.1212 113.672 47.035 114.049 46.8495C114.425 46.6639 114.748 46.3853 114.986 46.04V47H115.886V41H114.986V41.972C114.748 41.625 114.426 41.3445 114.05 41.1569C113.674 40.9693 113.256 40.8808 112.836 40.9ZM112.958 46.28C112.665 46.2808 112.376 46.2212 112.108 46.1048C111.839 45.9884 111.598 45.8178 111.399 45.6037C111.199 45.3896 111.047 45.1366 110.95 44.8607C110.853 44.5847 110.814 44.2917 110.836 44C110.814 43.7083 110.853 43.4153 110.95 43.1393C111.047 42.8634 111.199 42.6104 111.399 42.3963C111.598 42.1822 111.839 42.0116 112.108 41.8952C112.376 41.7788 112.665 41.7192 112.958 41.72C113.248 41.7197 113.536 41.7801 113.801 41.8973C114.067 42.0145 114.305 42.1859 114.501 42.4005C114.697 42.6152 114.845 42.8683 114.937 43.1438C115.03 43.4192 115.063 43.7108 115.036 44C115.063 44.2892 115.03 44.5808 114.937 44.8562C114.845 45.1317 114.697 45.3848 114.501 45.5995C114.305 45.8141 114.067 45.9855 113.801 46.1027C113.536 46.2199 113.248 46.2803 112.958 46.28ZM125.198 42.944C125.541 42.795 125.828 42.5424 126.019 42.2217C126.211 41.901 126.297 41.5283 126.266 41.156C126.266 40.196 125.63 39.056 123.758 39.056H120.194V47H123.962C125.774 47 126.674 46.1 126.674 44.912C126.684 44.466 126.544 44.0296 126.276 43.6728C126.009 43.3159 125.629 43.0593 125.198 42.944ZM121.098 39.908H123.858C124.95 39.908 125.37 40.568 125.37 41.228C125.37 42.2 124.59 42.608 123.762 42.608H121.094L121.098 39.908ZM124.062 46.148H121.094V43.424H123.962C125.222 43.424 125.774 44.096 125.774 44.84C125.774 45.668 125.15 46.148 124.058 46.148H124.062ZM130.478 40.9C130.08 40.9004 129.686 40.9824 129.322 41.1409C128.957 41.2994 128.628 41.5311 128.356 41.8217C128.084 42.1123 127.875 42.4555 127.741 42.8302C127.607 43.2048 127.552 43.603 127.578 44C127.552 44.397 127.607 44.7952 127.741 45.1698C127.875 45.5445 128.084 45.8877 128.356 46.1783C128.628 46.4689 128.957 46.7006 129.322 46.8591C129.686 47.0176 130.08 47.0996 130.478 47.1C130.897 47.1209 131.314 47.0345 131.69 46.849C132.066 46.6635 132.388 46.385 132.626 46.04V47H133.526V41H132.626V41.972C132.389 41.6253 132.067 41.3449 131.691 41.1574C131.315 40.9698 130.898 40.8812 130.478 40.9ZM130.598 46.276C130.306 46.277 130.016 46.2177 129.748 46.1017C129.48 45.9857 129.238 45.8155 129.039 45.6018C128.84 45.3881 128.686 45.1355 128.589 44.8599C128.492 44.5843 128.453 44.2915 128.474 44C128.452 43.7082 128.491 43.415 128.588 43.1389C128.685 42.8628 128.838 42.6097 129.037 42.3956C129.237 42.1814 129.478 42.0109 129.747 41.8946C130.016 41.7784 130.305 41.7189 130.598 41.72C130.888 41.72 131.175 41.7806 131.441 41.8979C131.706 42.0152 131.944 42.1866 132.14 42.4013C132.335 42.6159 132.484 42.8689 132.576 43.1442C132.668 43.4195 132.701 43.711 132.674 44C132.701 44.289 132.668 44.5805 132.576 44.8558C132.484 45.1311 132.335 45.3841 132.14 45.5987C131.944 45.8134 131.706 45.9848 131.441 46.1021C131.175 46.2194 130.888 46.28 130.598 46.28V46.276ZM135.086 41V47H135.986V43.544C135.979 43.3037 136.022 43.0646 136.11 42.8411C136.199 42.6176 136.332 42.4145 136.501 42.244C136.671 42.0734 136.873 41.939 137.096 41.849C137.319 41.7589 137.558 41.715 137.798 41.72C138.031 41.7167 138.262 41.7623 138.476 41.854C138.69 41.9457 138.883 42.0813 139.041 42.2522C139.2 42.423 139.32 42.6252 139.396 42.8457C139.471 43.0662 139.499 43.3 139.478 43.532V47H140.378V43.508C140.406 43.1764 140.364 42.8427 140.256 42.528C140.148 42.2134 139.976 41.9246 139.75 41.6801C139.524 41.4356 139.25 41.2407 138.945 41.1078C138.64 40.9749 138.311 40.9068 137.978 40.908C137.586 40.899 137.199 40.9883 136.851 41.1679C136.503 41.3476 136.205 41.6116 135.986 41.936V41H135.086ZM144.578 46.28C144.283 46.2821 143.991 46.2237 143.719 46.1085C143.447 45.9932 143.202 45.8236 142.999 45.6099C142.795 45.3963 142.638 45.1432 142.536 44.8663C142.434 44.5894 142.39 44.2946 142.406 44C142.39 43.7054 142.434 43.4106 142.536 43.1337C142.638 42.8568 142.795 42.6037 142.999 42.3901C143.202 42.1764 143.447 42.0068 143.719 41.8915C143.991 41.7763 144.283 41.7179 144.578 41.72C144.953 41.7097 145.322 41.8162 145.633 42.0247C145.945 42.2333 146.184 42.5335 146.318 42.884H147.29C147.103 42.2869 146.724 41.7683 146.212 41.4094C145.7 41.0505 145.083 40.8713 144.458 40.9C144.056 40.8947 143.658 40.9724 143.287 41.1282C142.917 41.2841 142.583 41.5148 142.305 41.8058C142.028 42.0968 141.814 42.4419 141.677 42.8195C141.539 43.197 141.481 43.5989 141.506 44C141.481 44.4011 141.539 44.803 141.677 45.1805C141.814 45.5581 142.028 45.9032 142.305 46.1942C142.583 46.4852 142.917 46.7159 143.287 46.8718C143.658 47.0276 144.056 47.1053 144.458 47.1C145.082 47.1289 145.699 46.9504 146.211 46.5922C146.723 46.234 147.103 45.7164 147.29 45.12H146.318C146.184 45.4697 145.944 45.7691 145.633 45.9769C145.321 46.1847 144.952 46.2906 144.578 46.28ZM150.936 40.9C150.538 40.9004 150.144 40.9824 149.78 41.1409C149.415 41.2994 149.086 41.5311 148.814 41.8217C148.542 42.1123 148.333 42.4555 148.199 42.8302C148.065 43.2048 148.01 43.603 148.036 44C148.01 44.397 148.065 44.7952 148.199 45.1698C148.333 45.5445 148.542 45.8877 148.814 46.1783C149.086 46.4689 149.415 46.7006 149.78 46.8591C150.144 47.0176 150.538 47.0996 150.936 47.1C151.355 47.1212 151.772 47.035 152.149 46.8495C152.525 46.6639 152.848 46.3853 153.086 46.04V47H153.986V41H153.086V41.972C152.848 41.625 152.526 41.3445 152.15 41.1569C151.774 40.9693 151.356 40.8808 150.936 40.9ZM151.056 46.276C150.764 46.2765 150.475 46.2167 150.207 46.1005C149.939 45.9842 149.699 45.814 149.5 45.6003C149.301 45.3867 149.148 45.1343 149.051 44.8589C148.954 44.5836 148.915 44.2912 148.936 44C148.914 43.7082 148.953 43.415 149.05 43.1389C149.147 42.8628 149.3 42.6097 149.499 42.3956C149.699 42.1814 149.94 42.0109 150.209 41.8946C150.478 41.7784 150.767 41.7189 151.06 41.72C151.35 41.72 151.637 41.7806 151.903 41.8979C152.168 42.0152 152.406 42.1866 152.602 42.4013C152.797 42.6159 152.946 42.8689 153.038 43.1442C153.13 43.4195 153.163 43.711 153.136 44C153.163 44.2892 153.13 44.5808 153.037 44.8562C152.945 45.1317 152.797 45.3848 152.601 45.5995C152.405 45.8141 152.167 45.9855 151.901 46.1027C151.636 46.2199 151.348 46.2803 151.058 46.28L151.056 46.276ZM150.24 40.156H150.972L152.258 38.9H150.974L150.24 40.156ZM158.652 40.9C158.164 40.8923 157.687 41.0412 157.29 41.3249C156.892 41.6085 156.597 42.012 156.446 42.476V41H155.546V47H156.446V44.36C156.415 44.0493 156.448 43.7356 156.54 43.4375C156.633 43.1394 156.785 42.8629 156.986 42.6243C157.187 42.3857 157.434 42.1899 157.713 42.0483C157.991 41.9067 158.295 41.8223 158.606 41.8H158.714V40.9H158.652ZM159.686 47H160.586V41H159.686V47ZM159.65 38.816V39.992H160.622V38.816H159.65ZM164.678 40.9C164.28 40.9004 163.886 40.9824 163.522 41.1409C163.157 41.2994 162.828 41.5311 162.556 41.8217C162.284 42.1123 162.075 42.4555 161.941 42.8302C161.807 43.2048 161.752 43.603 161.778 44C161.752 44.397 161.807 44.7952 161.941 45.1698C162.075 45.5445 162.284 45.8877 162.556 46.1783C162.828 46.4689 163.157 46.7006 163.522 46.8591C163.886 47.0176 164.28 47.0996 164.678 47.1C165.097 47.1209 165.514 47.0345 165.89 46.849C166.266 46.6635 166.588 46.385 166.826 46.04V47H167.726V41H166.826V41.972C166.589 41.6253 166.267 41.3449 165.891 41.1574C165.515 40.9698 165.098 40.8812 164.678 40.9ZM164.798 46.276C164.506 46.277 164.216 46.2177 163.948 46.1017C163.68 45.9857 163.438 45.8155 163.239 45.6018C163.04 45.3881 162.886 45.1355 162.789 44.8599C162.692 44.5843 162.653 44.2915 162.674 44C162.652 43.7082 162.691 43.415 162.788 43.1389C162.885 42.8628 163.038 42.6097 163.237 42.3956C163.437 42.1814 163.678 42.0109 163.947 41.8946C164.216 41.7784 164.505 41.7189 164.798 41.72C165.088 41.72 165.375 41.7806 165.641 41.8979C165.906 42.0152 166.144 42.1866 166.34 42.4013C166.535 42.6159 166.684 42.8689 166.776 43.1442C166.868 43.4195 166.901 43.711 166.874 44C166.901 44.289 166.868 44.5805 166.776 44.8558C166.684 45.1311 166.535 45.3841 166.34 45.5987C166.144 45.8134 165.906 45.9848 165.641 46.1021C165.375 46.2194 165.088 46.28 164.798 46.28V46.276Z" fill="#072338"/>
<path d="M49.4361 52.032H42.9961V52.896H45.7681V59.976H46.6681V52.896H49.4361V52.032ZM56.4201 52.896V52.032H50.5761V59.976H56.4201V59.112H51.4761V56.436H55.8921V55.56H51.4761V52.896H56.4201ZM61.2201 52.032H57.8761V59.976H61.2241C61.7287 59.9681 62.2264 59.8575 62.6868 59.6509C63.1473 59.4443 63.5608 59.1461 63.9021 58.7744C64.2435 58.4027 64.5056 57.9654 64.6723 57.4891C64.8391 57.0127 64.9071 56.5074 64.8721 56.004C64.9071 55.5006 64.8391 54.9953 64.6723 54.5189C64.5056 54.0426 64.2435 53.6053 63.9021 53.2336C63.5608 52.8619 63.1473 52.5637 62.6868 52.3571C62.2264 52.1505 61.7287 52.0399 61.2241 52.032H61.2201ZM61.1841 59.124H58.7761V52.884H61.1881C61.5792 52.8957 61.9639 52.9869 62.3186 53.1522C62.6733 53.3175 62.9906 53.5533 63.2511 53.8453C63.5116 54.1372 63.7099 54.4792 63.8339 54.8504C63.9579 55.2215 64.0049 55.6141 63.9721 56.004C64.0049 56.3939 63.9579 56.7865 63.8339 57.1576C63.7099 57.5288 63.5116 57.8708 63.2511 58.1627C62.9906 58.4547 62.6733 58.6905 62.3186 58.8558C61.9639 59.0211 61.5792 59.1123 61.1881 59.124H61.1841ZM69.4161 62.124V51H68.6841V62.124H69.4161ZM79.3681 52.032H72.9241V52.896H75.6961V59.976H76.5961V52.896H79.3681V52.032ZM86.3521 52.896V52.032H80.5081V59.976H86.3521V59.112H81.4081V56.436H85.8241V55.56H81.4081V52.896H86.3521ZM93.5401 52.896V52.032H87.8041V59.976H88.7041V56.532H93.0121V55.656H88.7041V52.896H93.5401ZM97.8961 62.124V51H97.1641V62.124H97.8961ZM107.844 52.032H101.4V52.896H104.172V59.976H105.072V52.896H107.844V52.032ZM114.828 52.896V52.032H108.984V59.976H114.828V59.112H109.884V56.436H114.3V55.56H109.884V52.896H114.828ZM121.828 52.032L119.076 58.956L116.328 52.032H115.344L118.56 59.976H119.592L122.808 52.032H121.828Z" fill="#F69A1C"/>
<path d="M20.836 32.8361C26.8206 32.8361 31.672 27.9846 31.672 22.0001C31.672 16.0155 26.8206 11.1641 20.836 11.1641C14.8514 11.1641 10 16.0155 10 22.0001C10 27.9846 14.8514 32.8361 20.836 32.8361Z" stroke="#072338" stroke-width="2"/>
<path d="M20.6646 25.9951V22.4321C19.7203 22.2159 18.8661 21.7125 18.2196 20.9911C17.6933 20.3256 17.4179 19.4962 17.4416 18.6481C17.4174 17.7821 17.7333 16.941 18.3216 16.3051C18.9373 15.6592 19.774 15.2693 20.6646 15.2131V14.3721H21.8976V15.2141C22.6965 15.2772 23.4524 15.6016 24.0486 16.1371C24.6026 16.6853 24.9613 17.4002 25.0696 18.1721L22.9176 18.4521C22.8789 18.1568 22.7647 17.8765 22.586 17.6382C22.4073 17.4 22.1702 17.2119 21.8976 17.0921V20.4171C22.9439 20.615 23.9101 21.1129 24.6786 21.8501C25.1891 22.4886 25.4516 23.2902 25.4176 24.1071C25.4449 25.0581 25.1125 25.9845 24.4866 26.7011C23.8097 27.4327 22.8891 27.8921 21.8976 27.9931V29.5831H20.6646V28.0361C19.7656 27.9543 18.9222 27.5659 18.2756 26.9361C17.6152 26.2215 17.2034 25.3127 17.1016 24.3451L19.3206 24.1071C19.3987 24.5319 19.5732 24.9332 19.8306 25.2801C20.0475 25.5815 20.3335 25.8267 20.6646 25.9951ZM20.6646 17.0661C20.3437 17.1696 20.0637 17.3719 19.8646 17.6441C19.6698 17.9037 19.5646 18.2195 19.5646 18.5441C19.5648 18.8447 19.66 19.1377 19.8366 19.3811C20.048 19.6621 20.3338 19.8786 20.6616 20.0061L20.6646 17.0661ZM21.8976 26.1141C22.3023 26.0461 22.6698 25.8366 22.9346 25.5231C23.199 25.2143 23.3413 24.8195 23.3346 24.4131C23.3425 24.0563 23.2234 23.7083 22.9986 23.4311C22.7042 23.1137 22.3207 22.8927 21.8986 22.7971L21.8976 26.1141Z" fill="#072338"/>
<line x1="125.35" y1="51" x2="125.35" y2="62" stroke="#F69A1C" stroke-width="0.7"/>
</svg>
